<mxfile host="app.diagrams.net" modified="2023-10-21T17:26:47.374Z" agent="Mozilla/5.0 (Macintosh; Intel Mac OS X 10_15_7) AppleWebKit/537.36 (KHTML, like Gecko) Chrome/117.0.0.0 Safari/537.36" etag="0qzElwLSCtEFY27QdaK7" version="22.0.6" type="google">
  <diagram name="Page-1" id="2YBvvXClWsGukQMizWep">
    <mxGraphModel grid="1" page="1" gridSize="10" guides="1" tooltips="1" connect="1" arrows="1" fold="1" pageScale="1" pageWidth="850" pageHeight="1100" math="0" shadow="0">
      <root>
        <mxCell id="0" />
        <mxCell id="1" parent="0" />
        <mxCell id="aM9ryv3xv72pqoxQDRHE-1" value=":PantallaInicioSuperAdministradorIH" style="shape=umlLifeline;perimeter=lifelinePerimeter;whiteSpace=wrap;html=1;container=0;dropTarget=0;collapsible=0;recursiveResize=0;outlineConnect=0;portConstraint=eastwest;newEdgeStyle={&quot;edgeStyle&quot;:&quot;elbowEdgeStyle&quot;,&quot;elbow&quot;:&quot;vertical&quot;,&quot;curved&quot;:0,&quot;rounded&quot;:0};size=40;" vertex="1" parent="1">
          <mxGeometry x="-730" y="-800" width="210" height="240" as="geometry" />
        </mxCell>
        <mxCell id="KeAbAyhkcpfkSdxP1ioU-14" value="" style="html=1;points=[[0,0,0,0,5],[0,1,0,0,-5],[1,0,0,0,5],[1,1,0,0,-5]];perimeter=orthogonalPerimeter;outlineConnect=0;targetShapes=umlLifeline;portConstraint=eastwest;newEdgeStyle={&quot;curved&quot;:0,&quot;rounded&quot;:0};" vertex="1" parent="aM9ryv3xv72pqoxQDRHE-1">
          <mxGeometry x="100" y="60" width="10" height="30" as="geometry" />
        </mxCell>
        <mxCell id="aM9ryv3xv72pqoxQDRHE-5" value=":CRUDAdministradoresIH" style="shape=umlLifeline;perimeter=lifelinePerimeter;whiteSpace=wrap;html=1;container=0;dropTarget=0;collapsible=0;recursiveResize=0;outlineConnect=0;portConstraint=eastwest;newEdgeStyle={&quot;edgeStyle&quot;:&quot;elbowEdgeStyle&quot;,&quot;elbow&quot;:&quot;vertical&quot;,&quot;curved&quot;:0,&quot;rounded&quot;:0};" vertex="1" parent="1">
          <mxGeometry x="-500" y="-800" width="160" height="240" as="geometry" />
        </mxCell>
        <mxCell id="KeAbAyhkcpfkSdxP1ioU-15" value="" style="html=1;points=[[0,0,0,0,5],[0,1,0,0,-5],[1,0,0,0,5],[1,1,0,0,-5]];perimeter=orthogonalPerimeter;outlineConnect=0;targetShapes=umlLifeline;portConstraint=eastwest;newEdgeStyle={&quot;curved&quot;:0,&quot;rounded&quot;:0};" vertex="1" parent="aM9ryv3xv72pqoxQDRHE-5">
          <mxGeometry x="75" y="80" width="10" height="120" as="geometry" />
        </mxCell>
        <mxCell id="KeAbAyhkcpfkSdxP1ioU-2" value="&lt;font style=&quot;font-size: 30px;&quot;&gt;Diagrama de Secuencia de&lt;br&gt;&lt;b&gt;&lt;i&gt;Registrar Administradores&lt;/i&gt;&lt;/b&gt;&lt;/font&gt;" style="text;html=1;strokeColor=none;fillColor=none;align=center;verticalAlign=middle;whiteSpace=wrap;rounded=0;" vertex="1" parent="1">
          <mxGeometry x="-790" y="-1040" width="400" height="140" as="geometry" />
        </mxCell>
        <mxCell id="KeAbAyhkcpfkSdxP1ioU-10" value="" style="shape=umlLifeline;perimeter=lifelinePerimeter;whiteSpace=wrap;html=1;container=1;dropTarget=0;collapsible=0;recursiveResize=0;outlineConnect=0;portConstraint=eastwest;newEdgeStyle={&quot;curved&quot;:0,&quot;rounded&quot;:0};participant=umlActor;" vertex="1" parent="1">
          <mxGeometry x="-780" y="-800" width="20" height="240" as="geometry" />
        </mxCell>
        <mxCell id="KeAbAyhkcpfkSdxP1ioU-11" value="" style="html=1;points=[[0,0,0,0,5],[0,1,0,0,-5],[1,0,0,0,5],[1,1,0,0,-5]];perimeter=orthogonalPerimeter;outlineConnect=0;targetShapes=umlLifeline;portConstraint=eastwest;newEdgeStyle={&quot;curved&quot;:0,&quot;rounded&quot;:0};" vertex="1" parent="KeAbAyhkcpfkSdxP1ioU-10">
          <mxGeometry x="5" y="60" width="10" height="160" as="geometry" />
        </mxCell>
        <mxCell id="KeAbAyhkcpfkSdxP1ioU-12" value="iniciarSesion" style="html=1;verticalAlign=bottom;endArrow=block;curved=0;rounded=0;entryX=0;entryY=0;entryDx=0;entryDy=5;entryPerimeter=0;" edge="1" parent="1" source="KeAbAyhkcpfkSdxP1ioU-11" target="KeAbAyhkcpfkSdxP1ioU-14">
          <mxGeometry width="80" relative="1" as="geometry">
            <mxPoint x="-750" y="-710" as="sourcePoint" />
            <mxPoint x="-670" y="-710" as="targetPoint" />
          </mxGeometry>
        </mxCell>
        <mxCell id="KeAbAyhkcpfkSdxP1ioU-16" value="verAdministradores()" style="html=1;verticalAlign=bottom;endArrow=block;curved=0;rounded=0;entryX=0;entryY=0;entryDx=0;entryDy=5;entryPerimeter=0;exitX=1;exitY=1;exitDx=0;exitDy=-5;exitPerimeter=0;" edge="1" parent="1" source="KeAbAyhkcpfkSdxP1ioU-14" target="KeAbAyhkcpfkSdxP1ioU-15">
          <mxGeometry width="80" relative="1" as="geometry">
            <mxPoint x="-600" y="-720" as="sourcePoint" />
            <mxPoint x="-465" y="-720" as="targetPoint" />
          </mxGeometry>
        </mxCell>
        <mxCell id="KeAbAyhkcpfkSdxP1ioU-17" value=":RegistroAdministradorIH" style="shape=umlLifeline;perimeter=lifelinePerimeter;whiteSpace=wrap;html=1;container=0;dropTarget=0;collapsible=0;recursiveResize=0;outlineConnect=0;portConstraint=eastwest;newEdgeStyle={&quot;edgeStyle&quot;:&quot;elbowEdgeStyle&quot;,&quot;elbow&quot;:&quot;vertical&quot;,&quot;curved&quot;:0,&quot;rounded&quot;:0};" vertex="1" parent="1">
          <mxGeometry x="-325" y="-800" width="160" height="240" as="geometry" />
        </mxCell>
        <mxCell id="KeAbAyhkcpfkSdxP1ioU-18" value="" style="html=1;points=[[0,0,0,0,5],[0,1,0,0,-5],[1,0,0,0,5],[1,1,0,0,-5]];perimeter=orthogonalPerimeter;outlineConnect=0;targetShapes=umlLifeline;portConstraint=eastwest;newEdgeStyle={&quot;curved&quot;:0,&quot;rounded&quot;:0};" vertex="1" parent="KeAbAyhkcpfkSdxP1ioU-17">
          <mxGeometry x="75" y="100" width="10" height="50" as="geometry" />
        </mxCell>
        <mxCell id="KeAbAyhkcpfkSdxP1ioU-68" value="validarCampos()" style="html=1;verticalAlign=bottom;endArrow=block;curved=0;rounded=0;exitX=0.99;exitY=0.23;exitDx=0;exitDy=0;exitPerimeter=0;" edge="1" parent="KeAbAyhkcpfkSdxP1ioU-17" source="KeAbAyhkcpfkSdxP1ioU-18" target="KeAbAyhkcpfkSdxP1ioU-18">
          <mxGeometry width="80" relative="1" as="geometry">
            <mxPoint x="90.93000000000029" y="110.00000000000011" as="sourcePoint" />
            <mxPoint x="90" y="124" as="targetPoint" />
            <Array as="points">
              <mxPoint x="150" y="110" />
              <mxPoint x="150" y="124" />
            </Array>
          </mxGeometry>
        </mxCell>
        <mxCell id="KeAbAyhkcpfkSdxP1ioU-20" value="registrarNuevoAdministrador()" style="html=1;verticalAlign=bottom;endArrow=block;curved=0;rounded=0;entryX=0;entryY=0;entryDx=0;entryDy=5;entryPerimeter=0;" edge="1" parent="1" source="KeAbAyhkcpfkSdxP1ioU-15" target="KeAbAyhkcpfkSdxP1ioU-18">
          <mxGeometry width="80" relative="1" as="geometry">
            <mxPoint x="-400" y="-700" as="sourcePoint" />
            <mxPoint x="-205" y="-700" as="targetPoint" />
          </mxGeometry>
        </mxCell>
        <mxCell id="KeAbAyhkcpfkSdxP1ioU-21" value=":RegistrarAdministrador" style="shape=umlLifeline;perimeter=lifelinePerimeter;whiteSpace=wrap;html=1;container=0;dropTarget=0;collapsible=0;recursiveResize=0;outlineConnect=0;portConstraint=eastwest;newEdgeStyle={&quot;edgeStyle&quot;:&quot;elbowEdgeStyle&quot;,&quot;elbow&quot;:&quot;vertical&quot;,&quot;curved&quot;:0,&quot;rounded&quot;:0};" vertex="1" parent="1">
          <mxGeometry x="-150" y="-800" width="160" height="240" as="geometry" />
        </mxCell>
        <mxCell id="KeAbAyhkcpfkSdxP1ioU-22" value="" style="html=1;points=[[0,0,0,0,5],[0,1,0,0,-5],[1,0,0,0,5],[1,1,0,0,-5]];perimeter=orthogonalPerimeter;outlineConnect=0;targetShapes=umlLifeline;portConstraint=eastwest;newEdgeStyle={&quot;curved&quot;:0,&quot;rounded&quot;:0};" vertex="1" parent="KeAbAyhkcpfkSdxP1ioU-21">
          <mxGeometry x="75" y="140" width="10" height="40" as="geometry" />
        </mxCell>
        <mxCell id="KeAbAyhkcpfkSdxP1ioU-23" value="registrar()" style="html=1;verticalAlign=bottom;endArrow=block;curved=0;rounded=0;entryX=0;entryY=0;entryDx=0;entryDy=5;entryPerimeter=0;exitX=1;exitY=1;exitDx=0;exitDy=-5;exitPerimeter=0;" edge="1" parent="1" source="KeAbAyhkcpfkSdxP1ioU-18" target="KeAbAyhkcpfkSdxP1ioU-22">
          <mxGeometry width="80" relative="1" as="geometry">
            <mxPoint x="-230" y="-685" as="sourcePoint" />
            <mxPoint x="-65" y="-685" as="targetPoint" />
          </mxGeometry>
        </mxCell>
        <mxCell id="KeAbAyhkcpfkSdxP1ioU-24" value=":AdministradorBD" style="shape=umlLifeline;perimeter=lifelinePerimeter;whiteSpace=wrap;html=1;container=0;dropTarget=0;collapsible=0;recursiveResize=0;outlineConnect=0;portConstraint=eastwest;newEdgeStyle={&quot;edgeStyle&quot;:&quot;elbowEdgeStyle&quot;,&quot;elbow&quot;:&quot;vertical&quot;,&quot;curved&quot;:0,&quot;rounded&quot;:0};" vertex="1" parent="1">
          <mxGeometry x="30" y="-800" width="160" height="240" as="geometry" />
        </mxCell>
        <mxCell id="KeAbAyhkcpfkSdxP1ioU-25" value="" style="html=1;points=[[0,0,0,0,5],[0,1,0,0,-5],[1,0,0,0,5],[1,1,0,0,-5]];perimeter=orthogonalPerimeter;outlineConnect=0;targetShapes=umlLifeline;portConstraint=eastwest;newEdgeStyle={&quot;curved&quot;:0,&quot;rounded&quot;:0};" vertex="1" parent="KeAbAyhkcpfkSdxP1ioU-24">
          <mxGeometry x="75" y="170" width="10" height="30" as="geometry" />
        </mxCell>
        <mxCell id="KeAbAyhkcpfkSdxP1ioU-26" value="registrarAdministrador()" style="html=1;verticalAlign=bottom;endArrow=block;curved=0;rounded=0;entryX=0;entryY=0;entryDx=0;entryDy=5;entryPerimeter=0;exitX=1;exitY=1;exitDx=0;exitDy=-5;exitPerimeter=0;" edge="1" parent="1" source="KeAbAyhkcpfkSdxP1ioU-22" target="KeAbAyhkcpfkSdxP1ioU-25">
          <mxGeometry width="80" relative="1" as="geometry">
            <mxPoint x="-50" y="-660" as="sourcePoint" />
            <mxPoint x="115" y="-660" as="targetPoint" />
          </mxGeometry>
        </mxCell>
        <mxCell id="KeAbAyhkcpfkSdxP1ioU-27" value="guardarAdministradorBD()" style="html=1;verticalAlign=bottom;endArrow=open;dashed=1;endSize=8;curved=0;rounded=0;exitX=0;exitY=1;exitDx=0;exitDy=-5;exitPerimeter=0;" edge="1" parent="1" source="KeAbAyhkcpfkSdxP1ioU-25" target="KeAbAyhkcpfkSdxP1ioU-15">
          <mxGeometry relative="1" as="geometry">
            <mxPoint x="-280" y="-510" as="sourcePoint" />
            <mxPoint x="-360" y="-510" as="targetPoint" />
          </mxGeometry>
        </mxCell>
        <mxCell id="KeAbAyhkcpfkSdxP1ioU-28" value="&lt;span style=&quot;font-size: 30px;&quot;&gt;Flujo normal&lt;/span&gt;" style="text;html=1;strokeColor=none;fillColor=none;align=center;verticalAlign=middle;whiteSpace=wrap;rounded=0;" vertex="1" parent="1">
          <mxGeometry x="-790" y="-880" width="330" height="60" as="geometry" />
        </mxCell>
        <mxCell id="KeAbAyhkcpfkSdxP1ioU-48" value=":PantallaInicioSuperAdministradorIH" style="shape=umlLifeline;perimeter=lifelinePerimeter;whiteSpace=wrap;html=1;container=0;dropTarget=0;collapsible=0;recursiveResize=0;outlineConnect=0;portConstraint=eastwest;newEdgeStyle={&quot;edgeStyle&quot;:&quot;elbowEdgeStyle&quot;,&quot;elbow&quot;:&quot;vertical&quot;,&quot;curved&quot;:0,&quot;rounded&quot;:0};size=40;" vertex="1" parent="1">
          <mxGeometry x="-730" y="-480" width="210" height="240" as="geometry" />
        </mxCell>
        <mxCell id="KeAbAyhkcpfkSdxP1ioU-49" value="" style="html=1;points=[[0,0,0,0,5],[0,1,0,0,-5],[1,0,0,0,5],[1,1,0,0,-5]];perimeter=orthogonalPerimeter;outlineConnect=0;targetShapes=umlLifeline;portConstraint=eastwest;newEdgeStyle={&quot;curved&quot;:0,&quot;rounded&quot;:0};" vertex="1" parent="KeAbAyhkcpfkSdxP1ioU-48">
          <mxGeometry x="100" y="60" width="10" height="30" as="geometry" />
        </mxCell>
        <mxCell id="KeAbAyhkcpfkSdxP1ioU-50" value=":CRUDAdministradoresIH" style="shape=umlLifeline;perimeter=lifelinePerimeter;whiteSpace=wrap;html=1;container=0;dropTarget=0;collapsible=0;recursiveResize=0;outlineConnect=0;portConstraint=eastwest;newEdgeStyle={&quot;edgeStyle&quot;:&quot;elbowEdgeStyle&quot;,&quot;elbow&quot;:&quot;vertical&quot;,&quot;curved&quot;:0,&quot;rounded&quot;:0};" vertex="1" parent="1">
          <mxGeometry x="-500" y="-480" width="160" height="240" as="geometry" />
        </mxCell>
        <mxCell id="KeAbAyhkcpfkSdxP1ioU-51" value="" style="html=1;points=[[0,0,0,0,5],[0,1,0,0,-5],[1,0,0,0,5],[1,1,0,0,-5]];perimeter=orthogonalPerimeter;outlineConnect=0;targetShapes=umlLifeline;portConstraint=eastwest;newEdgeStyle={&quot;curved&quot;:0,&quot;rounded&quot;:0};" vertex="1" parent="KeAbAyhkcpfkSdxP1ioU-50">
          <mxGeometry x="75" y="80" width="10" height="110" as="geometry" />
        </mxCell>
        <mxCell id="KeAbAyhkcpfkSdxP1ioU-52" value="" style="shape=umlLifeline;perimeter=lifelinePerimeter;whiteSpace=wrap;html=1;container=1;dropTarget=0;collapsible=0;recursiveResize=0;outlineConnect=0;portConstraint=eastwest;newEdgeStyle={&quot;curved&quot;:0,&quot;rounded&quot;:0};participant=umlActor;" vertex="1" parent="1">
          <mxGeometry x="-780" y="-480" width="20" height="240" as="geometry" />
        </mxCell>
        <mxCell id="KeAbAyhkcpfkSdxP1ioU-53" value="" style="html=1;points=[[0,0,0,0,5],[0,1,0,0,-5],[1,0,0,0,5],[1,1,0,0,-5]];perimeter=orthogonalPerimeter;outlineConnect=0;targetShapes=umlLifeline;portConstraint=eastwest;newEdgeStyle={&quot;curved&quot;:0,&quot;rounded&quot;:0};" vertex="1" parent="KeAbAyhkcpfkSdxP1ioU-52">
          <mxGeometry x="5" y="60" width="10" height="160" as="geometry" />
        </mxCell>
        <mxCell id="KeAbAyhkcpfkSdxP1ioU-54" value="iniciarSesion" style="html=1;verticalAlign=bottom;endArrow=block;curved=0;rounded=0;entryX=0;entryY=0;entryDx=0;entryDy=5;entryPerimeter=0;" edge="1" parent="1" source="KeAbAyhkcpfkSdxP1ioU-53" target="KeAbAyhkcpfkSdxP1ioU-49">
          <mxGeometry width="80" relative="1" as="geometry">
            <mxPoint x="-750" y="-390" as="sourcePoint" />
            <mxPoint x="-670" y="-390" as="targetPoint" />
          </mxGeometry>
        </mxCell>
        <mxCell id="KeAbAyhkcpfkSdxP1ioU-55" value="verAdministradores()" style="html=1;verticalAlign=bottom;endArrow=block;curved=0;rounded=0;entryX=0;entryY=0;entryDx=0;entryDy=5;entryPerimeter=0;exitX=1;exitY=1;exitDx=0;exitDy=-5;exitPerimeter=0;" edge="1" parent="1" source="KeAbAyhkcpfkSdxP1ioU-49" target="KeAbAyhkcpfkSdxP1ioU-51">
          <mxGeometry width="80" relative="1" as="geometry">
            <mxPoint x="-600" y="-400" as="sourcePoint" />
            <mxPoint x="-465" y="-400" as="targetPoint" />
          </mxGeometry>
        </mxCell>
        <mxCell id="KeAbAyhkcpfkSdxP1ioU-56" value=":RegistroAdministradorIH" style="shape=umlLifeline;perimeter=lifelinePerimeter;whiteSpace=wrap;html=1;container=0;dropTarget=0;collapsible=0;recursiveResize=0;outlineConnect=0;portConstraint=eastwest;newEdgeStyle={&quot;edgeStyle&quot;:&quot;elbowEdgeStyle&quot;,&quot;elbow&quot;:&quot;vertical&quot;,&quot;curved&quot;:0,&quot;rounded&quot;:0};" vertex="1" parent="1">
          <mxGeometry x="-325" y="-480" width="160" height="240" as="geometry" />
        </mxCell>
        <mxCell id="KeAbAyhkcpfkSdxP1ioU-57" value="" style="html=1;points=[[0,0,0,0,5],[0,1,0,0,-5],[1,0,0,0,5],[1,1,0,0,-5]];perimeter=orthogonalPerimeter;outlineConnect=0;targetShapes=umlLifeline;portConstraint=eastwest;newEdgeStyle={&quot;curved&quot;:0,&quot;rounded&quot;:0};" vertex="1" parent="KeAbAyhkcpfkSdxP1ioU-56">
          <mxGeometry x="75" y="100" width="10" height="70" as="geometry" />
        </mxCell>
        <mxCell id="KeAbAyhkcpfkSdxP1ioU-61" value="validarCampos()" style="html=1;verticalAlign=bottom;endArrow=block;curved=0;rounded=0;exitX=1.093;exitY=0.162;exitDx=0;exitDy=0;exitPerimeter=0;" edge="1" parent="KeAbAyhkcpfkSdxP1ioU-56" target="KeAbAyhkcpfkSdxP1ioU-57">
          <mxGeometry width="80" relative="1" as="geometry">
            <mxPoint x="85.93000000000029" y="110.00000000000014" as="sourcePoint" />
            <mxPoint x="85" y="143.66" as="targetPoint" />
            <Array as="points">
              <mxPoint x="145" y="110" />
              <mxPoint x="145" y="124" />
            </Array>
          </mxGeometry>
        </mxCell>
        <mxCell id="KeAbAyhkcpfkSdxP1ioU-69" value="mensajeErrorCampos()" style="html=1;verticalAlign=bottom;endArrow=block;curved=0;rounded=0;entryX=1;entryY=1;entryDx=0;entryDy=-5;entryPerimeter=0;" edge="1" parent="KeAbAyhkcpfkSdxP1ioU-56" source="KeAbAyhkcpfkSdxP1ioU-57" target="KeAbAyhkcpfkSdxP1ioU-57">
          <mxGeometry width="80" relative="1" as="geometry">
            <mxPoint x="100.93000000000029" y="150.0000000000001" as="sourcePoint" />
            <mxPoint x="100" y="164" as="targetPoint" />
            <Array as="points">
              <mxPoint x="160" y="150" />
              <mxPoint x="160" y="164" />
            </Array>
          </mxGeometry>
        </mxCell>
        <mxCell id="KeAbAyhkcpfkSdxP1ioU-58" value="registrarNuevoAdministrador()" style="html=1;verticalAlign=bottom;endArrow=block;curved=0;rounded=0;entryX=0;entryY=0;entryDx=0;entryDy=5;entryPerimeter=0;" edge="1" parent="1" source="KeAbAyhkcpfkSdxP1ioU-51" target="KeAbAyhkcpfkSdxP1ioU-57">
          <mxGeometry width="80" relative="1" as="geometry">
            <mxPoint x="-400" y="-380" as="sourcePoint" />
            <mxPoint x="-205" y="-380" as="targetPoint" />
          </mxGeometry>
        </mxCell>
        <mxCell id="KeAbAyhkcpfkSdxP1ioU-66" value="&lt;span style=&quot;font-size: 30px;&quot;&gt;Flujo alternativo&lt;/span&gt;" style="text;html=1;strokeColor=none;fillColor=none;align=center;verticalAlign=middle;whiteSpace=wrap;rounded=0;" vertex="1" parent="1">
          <mxGeometry x="-790" y="-550" width="330" height="60" as="geometry" />
        </mxCell>
        <mxCell id="4mz0sxE7qNnmxhI9pcOG-5" value="&lt;font style=&quot;font-size: 30px;&quot;&gt;Diagrama de Secuencia de&lt;br&gt;&lt;b&gt;&lt;i&gt;Cerrar sesión&lt;/i&gt;&lt;/b&gt;&lt;/font&gt;" style="text;html=1;strokeColor=none;fillColor=none;align=center;verticalAlign=middle;whiteSpace=wrap;rounded=0;" vertex="1" parent="1">
          <mxGeometry x="-780" y="-180" width="400" height="140" as="geometry" />
        </mxCell>
        <mxCell id="4mz0sxE7qNnmxhI9pcOG-21" value="&lt;span style=&quot;font-size: 30px;&quot;&gt;Flujo normal&lt;/span&gt;" style="text;html=1;strokeColor=none;fillColor=none;align=center;verticalAlign=middle;whiteSpace=wrap;rounded=0;" vertex="1" parent="1">
          <mxGeometry x="-780" y="-20" width="330" height="60" as="geometry" />
        </mxCell>
        <mxCell id="4mz0sxE7qNnmxhI9pcOG-22" value=":PantallaInicioSesion" style="shape=umlLifeline;perimeter=lifelinePerimeter;whiteSpace=wrap;html=1;container=0;dropTarget=0;collapsible=0;recursiveResize=0;outlineConnect=0;portConstraint=eastwest;newEdgeStyle={&quot;edgeStyle&quot;:&quot;elbowEdgeStyle&quot;,&quot;elbow&quot;:&quot;vertical&quot;,&quot;curved&quot;:0,&quot;rounded&quot;:0};size=40;" vertex="1" parent="1">
          <mxGeometry x="-740" y="40" width="210" height="210" as="geometry" />
        </mxCell>
        <mxCell id="4mz0sxE7qNnmxhI9pcOG-23" value="" style="html=1;points=[[0,0,0,0,5],[0,1,0,0,-5],[1,0,0,0,5],[1,1,0,0,-5]];perimeter=orthogonalPerimeter;outlineConnect=0;targetShapes=umlLifeline;portConstraint=eastwest;newEdgeStyle={&quot;curved&quot;:0,&quot;rounded&quot;:0};" vertex="1" parent="4mz0sxE7qNnmxhI9pcOG-22">
          <mxGeometry x="100" y="60" width="10" height="110" as="geometry" />
        </mxCell>
        <mxCell id="4mz0sxE7qNnmxhI9pcOG-26" value="" style="shape=umlLifeline;perimeter=lifelinePerimeter;whiteSpace=wrap;html=1;container=1;dropTarget=0;collapsible=0;recursiveResize=0;outlineConnect=0;portConstraint=eastwest;newEdgeStyle={&quot;curved&quot;:0,&quot;rounded&quot;:0};participant=umlActor;" vertex="1" parent="1">
          <mxGeometry x="-790" y="40" width="20" height="210" as="geometry" />
        </mxCell>
        <mxCell id="4mz0sxE7qNnmxhI9pcOG-27" value="" style="html=1;points=[[0,0,0,0,5],[0,1,0,0,-5],[1,0,0,0,5],[1,1,0,0,-5]];perimeter=orthogonalPerimeter;outlineConnect=0;targetShapes=umlLifeline;portConstraint=eastwest;newEdgeStyle={&quot;curved&quot;:0,&quot;rounded&quot;:0};" vertex="1" parent="4mz0sxE7qNnmxhI9pcOG-26">
          <mxGeometry x="5" y="60" width="10" height="120" as="geometry" />
        </mxCell>
        <mxCell id="4mz0sxE7qNnmxhI9pcOG-28" value="ingresoAlSistema" style="html=1;verticalAlign=bottom;endArrow=block;curved=0;rounded=0;entryX=0;entryY=0;entryDx=0;entryDy=5;entryPerimeter=0;" edge="1" parent="1" source="4mz0sxE7qNnmxhI9pcOG-27" target="4mz0sxE7qNnmxhI9pcOG-23">
          <mxGeometry x="0.0008" width="80" relative="1" as="geometry">
            <mxPoint x="-760" y="130" as="sourcePoint" />
            <mxPoint x="-680" y="130" as="targetPoint" />
            <mxPoint as="offset" />
          </mxGeometry>
        </mxCell>
        <mxCell id="4mz0sxE7qNnmxhI9pcOG-29" value="iniciar sesion" style="html=1;verticalAlign=bottom;endArrow=block;curved=0;rounded=0;" edge="1" parent="1" target="4mz0sxE7qNnmxhI9pcOG-37">
          <mxGeometry x="0.0029" width="80" relative="1" as="geometry">
            <mxPoint x="-630" y="135" as="sourcePoint" />
            <mxPoint x="-435" y="125" as="targetPoint" />
            <mxPoint as="offset" />
          </mxGeometry>
        </mxCell>
        <mxCell id="4mz0sxE7qNnmxhI9pcOG-36" value=":ManejoDeSesionesUsuario" style="shape=umlLifeline;perimeter=lifelinePerimeter;whiteSpace=wrap;html=1;container=0;dropTarget=0;collapsible=0;recursiveResize=0;outlineConnect=0;portConstraint=eastwest;newEdgeStyle={&quot;edgeStyle&quot;:&quot;elbowEdgeStyle&quot;,&quot;elbow&quot;:&quot;vertical&quot;,&quot;curved&quot;:0,&quot;rounded&quot;:0};size=40;" vertex="1" parent="1">
          <mxGeometry x="-510" y="40" width="210" height="210" as="geometry" />
        </mxCell>
        <mxCell id="4mz0sxE7qNnmxhI9pcOG-37" value="" style="html=1;points=[[0,0,0,0,5],[0,1,0,0,-5],[1,0,0,0,5],[1,1,0,0,-5]];perimeter=orthogonalPerimeter;outlineConnect=0;targetShapes=umlLifeline;portConstraint=eastwest;newEdgeStyle={&quot;curved&quot;:0,&quot;rounded&quot;:0};" vertex="1" parent="4mz0sxE7qNnmxhI9pcOG-36">
          <mxGeometry x="100" y="60" width="10" height="110" as="geometry" />
        </mxCell>
        <mxCell id="4mz0sxE7qNnmxhI9pcOG-38" value="cerrarSesion()" style="html=1;verticalAlign=bottom;endArrow=block;curved=0;rounded=0;entryX=1;entryY=1;entryDx=0;entryDy=-5;entryPerimeter=0;" edge="1" parent="1" source="4mz0sxE7qNnmxhI9pcOG-37" target="4mz0sxE7qNnmxhI9pcOG-23">
          <mxGeometry x="0.004" width="80" relative="1" as="geometry">
            <mxPoint x="-600" y="210" as="sourcePoint" />
            <mxPoint x="-380" y="210" as="targetPoint" />
            <mxPoint as="offset" />
          </mxGeometry>
        </mxCell>
        <mxCell id="4mz0sxE7qNnmxhI9pcOG-42" value=":Navbar" style="shape=umlLifeline;perimeter=lifelinePerimeter;whiteSpace=wrap;html=1;container=0;dropTarget=0;collapsible=0;recursiveResize=0;outlineConnect=0;portConstraint=eastwest;newEdgeStyle={&quot;edgeStyle&quot;:&quot;elbowEdgeStyle&quot;,&quot;elbow&quot;:&quot;vertical&quot;,&quot;curved&quot;:0,&quot;rounded&quot;:0};size=40;" vertex="1" parent="1">
          <mxGeometry x="-270" y="40" width="210" height="210" as="geometry" />
        </mxCell>
        <mxCell id="4mz0sxE7qNnmxhI9pcOG-43" value="" style="html=1;points=[[0,0,0,0,5],[0,1,0,0,-5],[1,0,0,0,5],[1,1,0,0,-5]];perimeter=orthogonalPerimeter;outlineConnect=0;targetShapes=umlLifeline;portConstraint=eastwest;newEdgeStyle={&quot;curved&quot;:0,&quot;rounded&quot;:0};" vertex="1" parent="4mz0sxE7qNnmxhI9pcOG-42">
          <mxGeometry x="100" y="60" width="10" height="110" as="geometry" />
        </mxCell>
        <mxCell id="4mz0sxE7qNnmxhI9pcOG-44" value="cerrarSesion()" style="html=1;verticalAlign=bottom;endArrow=block;curved=0;rounded=0;" edge="1" parent="1" source="4mz0sxE7qNnmxhI9pcOG-43" target="4mz0sxE7qNnmxhI9pcOG-37">
          <mxGeometry x="0.004" width="80" relative="1" as="geometry">
            <mxPoint x="-400" y="175" as="sourcePoint" />
            <mxPoint x="-620" y="175" as="targetPoint" />
            <mxPoint as="offset" />
          </mxGeometry>
        </mxCell>
        <mxCell id="4mz0sxE7qNnmxhI9pcOG-45" value="&lt;span style=&quot;font-size: 30px;&quot;&gt;Flujo normal&lt;/span&gt;" style="text;html=1;strokeColor=none;fillColor=none;align=center;verticalAlign=middle;whiteSpace=wrap;rounded=0;" vertex="1" parent="1">
          <mxGeometry x="-770" y="440" width="330" height="60" as="geometry" />
        </mxCell>
        <mxCell id="4mz0sxE7qNnmxhI9pcOG-46" value=":PantallaInicioParticipanteIH" style="shape=umlLifeline;perimeter=lifelinePerimeter;whiteSpace=wrap;html=1;container=0;dropTarget=0;collapsible=0;recursiveResize=0;outlineConnect=0;portConstraint=eastwest;newEdgeStyle={&quot;edgeStyle&quot;:&quot;elbowEdgeStyle&quot;,&quot;elbow&quot;:&quot;vertical&quot;,&quot;curved&quot;:0,&quot;rounded&quot;:0};size=40;" vertex="1" parent="1">
          <mxGeometry x="-730" y="500" width="210" height="210" as="geometry" />
        </mxCell>
        <mxCell id="4mz0sxE7qNnmxhI9pcOG-47" value="" style="html=1;points=[[0,0,0,0,5],[0,1,0,0,-5],[1,0,0,0,5],[1,1,0,0,-5]];perimeter=orthogonalPerimeter;outlineConnect=0;targetShapes=umlLifeline;portConstraint=eastwest;newEdgeStyle={&quot;curved&quot;:0,&quot;rounded&quot;:0};" vertex="1" parent="4mz0sxE7qNnmxhI9pcOG-46">
          <mxGeometry x="100" y="60" width="10" height="110" as="geometry" />
        </mxCell>
        <mxCell id="4mz0sxE7qNnmxhI9pcOG-48" value="" style="shape=umlLifeline;perimeter=lifelinePerimeter;whiteSpace=wrap;html=1;container=1;dropTarget=0;collapsible=0;recursiveResize=0;outlineConnect=0;portConstraint=eastwest;newEdgeStyle={&quot;curved&quot;:0,&quot;rounded&quot;:0};participant=umlActor;" vertex="1" parent="1">
          <mxGeometry x="-780" y="500" width="20" height="210" as="geometry" />
        </mxCell>
        <mxCell id="4mz0sxE7qNnmxhI9pcOG-49" value="" style="html=1;points=[[0,0,0,0,5],[0,1,0,0,-5],[1,0,0,0,5],[1,1,0,0,-5]];perimeter=orthogonalPerimeter;outlineConnect=0;targetShapes=umlLifeline;portConstraint=eastwest;newEdgeStyle={&quot;curved&quot;:0,&quot;rounded&quot;:0};" vertex="1" parent="4mz0sxE7qNnmxhI9pcOG-48">
          <mxGeometry x="5" y="60" width="10" height="120" as="geometry" />
        </mxCell>
        <mxCell id="4mz0sxE7qNnmxhI9pcOG-50" value="iniciarSesion" style="html=1;verticalAlign=bottom;endArrow=block;curved=0;rounded=0;entryX=0;entryY=0;entryDx=0;entryDy=5;entryPerimeter=0;" edge="1" parent="1" source="4mz0sxE7qNnmxhI9pcOG-49" target="4mz0sxE7qNnmxhI9pcOG-47">
          <mxGeometry x="0.0008" width="80" relative="1" as="geometry">
            <mxPoint x="-750" y="590" as="sourcePoint" />
            <mxPoint x="-670" y="590" as="targetPoint" />
            <mxPoint as="offset" />
          </mxGeometry>
        </mxCell>
        <mxCell id="4mz0sxE7qNnmxhI9pcOG-52" value=":CRUDTorneos" style="shape=umlLifeline;perimeter=lifelinePerimeter;whiteSpace=wrap;html=1;container=0;dropTarget=0;collapsible=0;recursiveResize=0;outlineConnect=0;portConstraint=eastwest;newEdgeStyle={&quot;edgeStyle&quot;:&quot;elbowEdgeStyle&quot;,&quot;elbow&quot;:&quot;vertical&quot;,&quot;curved&quot;:0,&quot;rounded&quot;:0};size=40;" vertex="1" parent="1">
          <mxGeometry x="-260" y="500" width="210" height="210" as="geometry" />
        </mxCell>
        <mxCell id="4mz0sxE7qNnmxhI9pcOG-53" value="" style="html=1;points=[[0,0,0,0,5],[0,1,0,0,-5],[1,0,0,0,5],[1,1,0,0,-5]];perimeter=orthogonalPerimeter;outlineConnect=0;targetShapes=umlLifeline;portConstraint=eastwest;newEdgeStyle={&quot;curved&quot;:0,&quot;rounded&quot;:0};" vertex="1" parent="4mz0sxE7qNnmxhI9pcOG-52">
          <mxGeometry x="100" y="60" width="10" height="120" as="geometry" />
        </mxCell>
        <mxCell id="4mz0sxE7qNnmxhI9pcOG-58" value="&lt;font style=&quot;font-size: 30px;&quot;&gt;Diagrama de Secuencia de&lt;br&gt;&lt;b&gt;&lt;i&gt;Ver su status de participación&lt;/i&gt;&lt;/b&gt;&lt;/font&gt;" style="text;html=1;strokeColor=none;fillColor=none;align=center;verticalAlign=middle;whiteSpace=wrap;rounded=0;" vertex="1" parent="1">
          <mxGeometry x="-780" y="320" width="440" height="140" as="geometry" />
        </mxCell>
        <mxCell id="4mz0sxE7qNnmxhI9pcOG-60" value=":CRUDTorneosIH" style="shape=umlLifeline;perimeter=lifelinePerimeter;whiteSpace=wrap;html=1;container=0;dropTarget=0;collapsible=0;recursiveResize=0;outlineConnect=0;portConstraint=eastwest;newEdgeStyle={&quot;edgeStyle&quot;:&quot;elbowEdgeStyle&quot;,&quot;elbow&quot;:&quot;vertical&quot;,&quot;curved&quot;:0,&quot;rounded&quot;:0};size=40;" vertex="1" parent="1">
          <mxGeometry x="-490" y="500" width="210" height="210" as="geometry" />
        </mxCell>
        <mxCell id="4mz0sxE7qNnmxhI9pcOG-61" value="" style="html=1;points=[[0,0,0,0,5],[0,1,0,0,-5],[1,0,0,0,5],[1,1,0,0,-5]];perimeter=orthogonalPerimeter;outlineConnect=0;targetShapes=umlLifeline;portConstraint=eastwest;newEdgeStyle={&quot;curved&quot;:0,&quot;rounded&quot;:0};" vertex="1" parent="4mz0sxE7qNnmxhI9pcOG-60">
          <mxGeometry x="100" y="60" width="10" height="130" as="geometry" />
        </mxCell>
        <mxCell id="4mz0sxE7qNnmxhI9pcOG-71" value="listarTorneos()" style="html=1;verticalAlign=bottom;endArrow=block;curved=0;rounded=0;entryX=1;entryY=1;entryDx=0;entryDy=-5;entryPerimeter=0;" edge="1" parent="4mz0sxE7qNnmxhI9pcOG-60" source="4mz0sxE7qNnmxhI9pcOG-61" target="4mz0sxE7qNnmxhI9pcOG-61">
          <mxGeometry width="80" relative="1" as="geometry">
            <mxPoint x="125" y="160" as="sourcePoint" />
            <mxPoint x="125" y="175" as="targetPoint" />
            <Array as="points">
              <mxPoint x="200" y="160" />
              <mxPoint x="200" y="185" />
            </Array>
          </mxGeometry>
        </mxCell>
        <mxCell id="4mz0sxE7qNnmxhI9pcOG-62" value="buscarTorneos()" style="html=1;verticalAlign=bottom;endArrow=block;curved=0;rounded=0;" edge="1" parent="1">
          <mxGeometry x="0.0029" width="80" relative="1" as="geometry">
            <mxPoint x="-620" y="595" as="sourcePoint" />
            <mxPoint x="-160" y="595" as="targetPoint" />
            <mxPoint as="offset" />
          </mxGeometry>
        </mxCell>
        <mxCell id="4mz0sxE7qNnmxhI9pcOG-64" value=":ManejoSesionesUsuario" style="shape=umlLifeline;perimeter=lifelinePerimeter;whiteSpace=wrap;html=1;container=0;dropTarget=0;collapsible=0;recursiveResize=0;outlineConnect=0;portConstraint=eastwest;newEdgeStyle={&quot;edgeStyle&quot;:&quot;elbowEdgeStyle&quot;,&quot;elbow&quot;:&quot;vertical&quot;,&quot;curved&quot;:0,&quot;rounded&quot;:0};size=40;" vertex="1" parent="1">
          <mxGeometry y="500" width="210" height="210" as="geometry" />
        </mxCell>
        <mxCell id="4mz0sxE7qNnmxhI9pcOG-65" value="" style="html=1;points=[[0,0,0,0,5],[0,1,0,0,-5],[1,0,0,0,5],[1,1,0,0,-5]];perimeter=orthogonalPerimeter;outlineConnect=0;targetShapes=umlLifeline;portConstraint=eastwest;newEdgeStyle={&quot;curved&quot;:0,&quot;rounded&quot;:0};" vertex="1" parent="4mz0sxE7qNnmxhI9pcOG-64">
          <mxGeometry x="100" y="60" width="10" height="110" as="geometry" />
        </mxCell>
        <mxCell id="4mz0sxE7qNnmxhI9pcOG-66" value="usuarioActivo" style="html=1;verticalAlign=bottom;endArrow=open;dashed=1;endSize=8;curved=0;rounded=0;" edge="1" parent="1" target="4mz0sxE7qNnmxhI9pcOG-53">
          <mxGeometry relative="1" as="geometry">
            <mxPoint x="100" y="605" as="sourcePoint" />
            <mxPoint x="-260" y="800" as="targetPoint" />
          </mxGeometry>
        </mxCell>
        <mxCell id="4mz0sxE7qNnmxhI9pcOG-67" value=":EntrarBD" style="shape=umlLifeline;perimeter=lifelinePerimeter;whiteSpace=wrap;html=1;container=0;dropTarget=0;collapsible=0;recursiveResize=0;outlineConnect=0;portConstraint=eastwest;newEdgeStyle={&quot;edgeStyle&quot;:&quot;elbowEdgeStyle&quot;,&quot;elbow&quot;:&quot;vertical&quot;,&quot;curved&quot;:0,&quot;rounded&quot;:0};size=40;" vertex="1" parent="1">
          <mxGeometry x="230" y="500" width="210" height="210" as="geometry" />
        </mxCell>
        <mxCell id="4mz0sxE7qNnmxhI9pcOG-68" value="" style="html=1;points=[[0,0,0,0,5],[0,1,0,0,-5],[1,0,0,0,5],[1,1,0,0,-5]];perimeter=orthogonalPerimeter;outlineConnect=0;targetShapes=umlLifeline;portConstraint=eastwest;newEdgeStyle={&quot;curved&quot;:0,&quot;rounded&quot;:0};" vertex="1" parent="4mz0sxE7qNnmxhI9pcOG-67">
          <mxGeometry x="100" y="60" width="10" height="110" as="geometry" />
        </mxCell>
        <mxCell id="4mz0sxE7qNnmxhI9pcOG-69" value="statusParticipacion()" style="html=1;verticalAlign=bottom;endArrow=block;curved=0;rounded=0;" edge="1" parent="1" source="4mz0sxE7qNnmxhI9pcOG-53">
          <mxGeometry x="0.4583" width="80" relative="1" as="geometry">
            <mxPoint x="-150" y="615" as="sourcePoint" />
            <mxPoint x="330" y="615" as="targetPoint" />
            <mxPoint as="offset" />
          </mxGeometry>
        </mxCell>
        <mxCell id="4mz0sxE7qNnmxhI9pcOG-70" value="consultarStatusParticipacion()" style="html=1;verticalAlign=bottom;endArrow=open;dashed=1;endSize=8;curved=0;rounded=0;entryX=1.142;entryY=0.502;entryDx=0;entryDy=0;entryPerimeter=0;" edge="1" parent="1" source="4mz0sxE7qNnmxhI9pcOG-68" target="4mz0sxE7qNnmxhI9pcOG-61">
          <mxGeometry x="0.6499" y="15" relative="1" as="geometry">
            <mxPoint x="110" y="615" as="sourcePoint" />
            <mxPoint x="-140" y="615" as="targetPoint" />
            <mxPoint as="offset" />
          </mxGeometry>
        </mxCell>
        <mxCell id="4mz0sxE7qNnmxhI9pcOG-127" value=":PantallaInicioAdministradorIH" style="shape=umlLifeline;perimeter=lifelinePerimeter;whiteSpace=wrap;html=1;container=0;dropTarget=0;collapsible=0;recursiveResize=0;outlineConnect=0;portConstraint=eastwest;newEdgeStyle={&quot;edgeStyle&quot;:&quot;elbowEdgeStyle&quot;,&quot;elbow&quot;:&quot;vertical&quot;,&quot;curved&quot;:0,&quot;rounded&quot;:0};size=40;" vertex="1" parent="1">
          <mxGeometry x="-710" y="1050" width="210" height="240" as="geometry" />
        </mxCell>
        <mxCell id="4mz0sxE7qNnmxhI9pcOG-128" value="" style="html=1;points=[[0,0,0,0,5],[0,1,0,0,-5],[1,0,0,0,5],[1,1,0,0,-5]];perimeter=orthogonalPerimeter;outlineConnect=0;targetShapes=umlLifeline;portConstraint=eastwest;newEdgeStyle={&quot;curved&quot;:0,&quot;rounded&quot;:0};" vertex="1" parent="4mz0sxE7qNnmxhI9pcOG-127">
          <mxGeometry x="100" y="60" width="10" height="30" as="geometry" />
        </mxCell>
        <mxCell id="4mz0sxE7qNnmxhI9pcOG-129" value=":CRUDTorneosIH" style="shape=umlLifeline;perimeter=lifelinePerimeter;whiteSpace=wrap;html=1;container=0;dropTarget=0;collapsible=0;recursiveResize=0;outlineConnect=0;portConstraint=eastwest;newEdgeStyle={&quot;edgeStyle&quot;:&quot;elbowEdgeStyle&quot;,&quot;elbow&quot;:&quot;vertical&quot;,&quot;curved&quot;:0,&quot;rounded&quot;:0};" vertex="1" parent="1">
          <mxGeometry x="-480" y="1050" width="160" height="240" as="geometry" />
        </mxCell>
        <mxCell id="4mz0sxE7qNnmxhI9pcOG-130" value="" style="html=1;points=[[0,0,0,0,5],[0,1,0,0,-5],[1,0,0,0,5],[1,1,0,0,-5]];perimeter=orthogonalPerimeter;outlineConnect=0;targetShapes=umlLifeline;portConstraint=eastwest;newEdgeStyle={&quot;curved&quot;:0,&quot;rounded&quot;:0};" vertex="1" parent="4mz0sxE7qNnmxhI9pcOG-129">
          <mxGeometry x="75" y="80" width="10" height="120" as="geometry" />
        </mxCell>
        <mxCell id="4mz0sxE7qNnmxhI9pcOG-131" value="&lt;font style=&quot;font-size: 30px;&quot;&gt;Diagrama de Secuencia de&lt;br&gt;&lt;b&gt;&lt;i&gt;Editar un torneo&lt;/i&gt;&lt;/b&gt;&lt;/font&gt;" style="text;html=1;strokeColor=none;fillColor=none;align=center;verticalAlign=middle;whiteSpace=wrap;rounded=0;" vertex="1" parent="1">
          <mxGeometry x="-770" y="810" width="400" height="140" as="geometry" />
        </mxCell>
        <mxCell id="4mz0sxE7qNnmxhI9pcOG-132" value="" style="shape=umlLifeline;perimeter=lifelinePerimeter;whiteSpace=wrap;html=1;container=1;dropTarget=0;collapsible=0;recursiveResize=0;outlineConnect=0;portConstraint=eastwest;newEdgeStyle={&quot;curved&quot;:0,&quot;rounded&quot;:0};participant=umlActor;" vertex="1" parent="1">
          <mxGeometry x="-760" y="1050" width="20" height="240" as="geometry" />
        </mxCell>
        <mxCell id="4mz0sxE7qNnmxhI9pcOG-133" value="" style="html=1;points=[[0,0,0,0,5],[0,1,0,0,-5],[1,0,0,0,5],[1,1,0,0,-5]];perimeter=orthogonalPerimeter;outlineConnect=0;targetShapes=umlLifeline;portConstraint=eastwest;newEdgeStyle={&quot;curved&quot;:0,&quot;rounded&quot;:0};" vertex="1" parent="4mz0sxE7qNnmxhI9pcOG-132">
          <mxGeometry x="5" y="60" width="10" height="160" as="geometry" />
        </mxCell>
        <mxCell id="4mz0sxE7qNnmxhI9pcOG-134" value="iniciarSesion" style="html=1;verticalAlign=bottom;endArrow=block;curved=0;rounded=0;entryX=0;entryY=0;entryDx=0;entryDy=5;entryPerimeter=0;" edge="1" parent="1" source="4mz0sxE7qNnmxhI9pcOG-133" target="4mz0sxE7qNnmxhI9pcOG-128">
          <mxGeometry width="80" relative="1" as="geometry">
            <mxPoint x="-730" y="1140" as="sourcePoint" />
            <mxPoint x="-650" y="1140" as="targetPoint" />
          </mxGeometry>
        </mxCell>
        <mxCell id="4mz0sxE7qNnmxhI9pcOG-135" value="buscarTorneos()" style="html=1;verticalAlign=bottom;endArrow=block;curved=0;rounded=0;entryX=0;entryY=0;entryDx=0;entryDy=5;entryPerimeter=0;exitX=1;exitY=1;exitDx=0;exitDy=-5;exitPerimeter=0;" edge="1" parent="1" source="4mz0sxE7qNnmxhI9pcOG-128" target="4mz0sxE7qNnmxhI9pcOG-130">
          <mxGeometry width="80" relative="1" as="geometry">
            <mxPoint x="-580" y="1130" as="sourcePoint" />
            <mxPoint x="-445" y="1130" as="targetPoint" />
          </mxGeometry>
        </mxCell>
        <mxCell id="4mz0sxE7qNnmxhI9pcOG-136" value=":FormularioEdicionTorneoIH" style="shape=umlLifeline;perimeter=lifelinePerimeter;whiteSpace=wrap;html=1;container=0;dropTarget=0;collapsible=0;recursiveResize=0;outlineConnect=0;portConstraint=eastwest;newEdgeStyle={&quot;edgeStyle&quot;:&quot;elbowEdgeStyle&quot;,&quot;elbow&quot;:&quot;vertical&quot;,&quot;curved&quot;:0,&quot;rounded&quot;:0};" vertex="1" parent="1">
          <mxGeometry x="-305" y="1050" width="160" height="240" as="geometry" />
        </mxCell>
        <mxCell id="4mz0sxE7qNnmxhI9pcOG-137" value="" style="html=1;points=[[0,0,0,0,5],[0,1,0,0,-5],[1,0,0,0,5],[1,1,0,0,-5]];perimeter=orthogonalPerimeter;outlineConnect=0;targetShapes=umlLifeline;portConstraint=eastwest;newEdgeStyle={&quot;curved&quot;:0,&quot;rounded&quot;:0};" vertex="1" parent="4mz0sxE7qNnmxhI9pcOG-136">
          <mxGeometry x="75" y="100" width="10" height="50" as="geometry" />
        </mxCell>
        <mxCell id="4mz0sxE7qNnmxhI9pcOG-138" value="validarCampos()" style="html=1;verticalAlign=bottom;endArrow=block;curved=0;rounded=0;exitX=0.99;exitY=0.23;exitDx=0;exitDy=0;exitPerimeter=0;" edge="1" parent="4mz0sxE7qNnmxhI9pcOG-136" source="4mz0sxE7qNnmxhI9pcOG-137" target="4mz0sxE7qNnmxhI9pcOG-137">
          <mxGeometry width="80" relative="1" as="geometry">
            <mxPoint x="90.93000000000029" y="110.00000000000011" as="sourcePoint" />
            <mxPoint x="90" y="124" as="targetPoint" />
            <Array as="points">
              <mxPoint x="150" y="110" />
              <mxPoint x="150" y="124" />
            </Array>
          </mxGeometry>
        </mxCell>
        <mxCell id="4mz0sxE7qNnmxhI9pcOG-139" value="editarTorneo()" style="html=1;verticalAlign=bottom;endArrow=block;curved=0;rounded=0;entryX=0;entryY=0;entryDx=0;entryDy=5;entryPerimeter=0;" edge="1" parent="1" source="4mz0sxE7qNnmxhI9pcOG-130" target="4mz0sxE7qNnmxhI9pcOG-137">
          <mxGeometry width="80" relative="1" as="geometry">
            <mxPoint x="-380" y="1150" as="sourcePoint" />
            <mxPoint x="-185" y="1150" as="targetPoint" />
          </mxGeometry>
        </mxCell>
        <mxCell id="4mz0sxE7qNnmxhI9pcOG-140" value=":EditarTorneo" style="shape=umlLifeline;perimeter=lifelinePerimeter;whiteSpace=wrap;html=1;container=0;dropTarget=0;collapsible=0;recursiveResize=0;outlineConnect=0;portConstraint=eastwest;newEdgeStyle={&quot;edgeStyle&quot;:&quot;elbowEdgeStyle&quot;,&quot;elbow&quot;:&quot;vertical&quot;,&quot;curved&quot;:0,&quot;rounded&quot;:0};" vertex="1" parent="1">
          <mxGeometry x="-130" y="1050" width="160" height="240" as="geometry" />
        </mxCell>
        <mxCell id="4mz0sxE7qNnmxhI9pcOG-141" value="" style="html=1;points=[[0,0,0,0,5],[0,1,0,0,-5],[1,0,0,0,5],[1,1,0,0,-5]];perimeter=orthogonalPerimeter;outlineConnect=0;targetShapes=umlLifeline;portConstraint=eastwest;newEdgeStyle={&quot;curved&quot;:0,&quot;rounded&quot;:0};" vertex="1" parent="4mz0sxE7qNnmxhI9pcOG-140">
          <mxGeometry x="75" y="140" width="10" height="40" as="geometry" />
        </mxCell>
        <mxCell id="4mz0sxE7qNnmxhI9pcOG-142" value="aplicarCambios()" style="html=1;verticalAlign=bottom;endArrow=block;curved=0;rounded=0;entryX=0;entryY=0;entryDx=0;entryDy=5;entryPerimeter=0;exitX=1;exitY=1;exitDx=0;exitDy=-5;exitPerimeter=0;" edge="1" parent="1" source="4mz0sxE7qNnmxhI9pcOG-137" target="4mz0sxE7qNnmxhI9pcOG-141">
          <mxGeometry width="80" relative="1" as="geometry">
            <mxPoint x="-210" y="1165" as="sourcePoint" />
            <mxPoint x="-45" y="1165" as="targetPoint" />
          </mxGeometry>
        </mxCell>
        <mxCell id="4mz0sxE7qNnmxhI9pcOG-143" value=":TorneoBD" style="shape=umlLifeline;perimeter=lifelinePerimeter;whiteSpace=wrap;html=1;container=0;dropTarget=0;collapsible=0;recursiveResize=0;outlineConnect=0;portConstraint=eastwest;newEdgeStyle={&quot;edgeStyle&quot;:&quot;elbowEdgeStyle&quot;,&quot;elbow&quot;:&quot;vertical&quot;,&quot;curved&quot;:0,&quot;rounded&quot;:0};" vertex="1" parent="1">
          <mxGeometry x="50" y="1050" width="160" height="240" as="geometry" />
        </mxCell>
        <mxCell id="4mz0sxE7qNnmxhI9pcOG-144" value="" style="html=1;points=[[0,0,0,0,5],[0,1,0,0,-5],[1,0,0,0,5],[1,1,0,0,-5]];perimeter=orthogonalPerimeter;outlineConnect=0;targetShapes=umlLifeline;portConstraint=eastwest;newEdgeStyle={&quot;curved&quot;:0,&quot;rounded&quot;:0};" vertex="1" parent="4mz0sxE7qNnmxhI9pcOG-143">
          <mxGeometry x="75" y="170" width="10" height="30" as="geometry" />
        </mxCell>
        <mxCell id="4mz0sxE7qNnmxhI9pcOG-145" value="editarTorneo()" style="html=1;verticalAlign=bottom;endArrow=block;curved=0;rounded=0;entryX=0;entryY=0;entryDx=0;entryDy=5;entryPerimeter=0;exitX=1;exitY=1;exitDx=0;exitDy=-5;exitPerimeter=0;" edge="1" parent="1" source="4mz0sxE7qNnmxhI9pcOG-141" target="4mz0sxE7qNnmxhI9pcOG-144">
          <mxGeometry width="80" relative="1" as="geometry">
            <mxPoint x="-30" y="1190" as="sourcePoint" />
            <mxPoint x="135" y="1190" as="targetPoint" />
          </mxGeometry>
        </mxCell>
        <mxCell id="4mz0sxE7qNnmxhI9pcOG-146" value="editarTorneo()" style="html=1;verticalAlign=bottom;endArrow=open;dashed=1;endSize=8;curved=0;rounded=0;exitX=0;exitY=1;exitDx=0;exitDy=-5;exitPerimeter=0;" edge="1" parent="1" source="4mz0sxE7qNnmxhI9pcOG-144" target="4mz0sxE7qNnmxhI9pcOG-130">
          <mxGeometry relative="1" as="geometry">
            <mxPoint x="-260" y="1340" as="sourcePoint" />
            <mxPoint x="-340" y="1340" as="targetPoint" />
          </mxGeometry>
        </mxCell>
        <mxCell id="4mz0sxE7qNnmxhI9pcOG-147" value="&lt;span style=&quot;font-size: 30px;&quot;&gt;Flujo normal&lt;/span&gt;" style="text;html=1;strokeColor=none;fillColor=none;align=center;verticalAlign=middle;whiteSpace=wrap;rounded=0;" vertex="1" parent="1">
          <mxGeometry x="-770" y="970" width="330" height="60" as="geometry" />
        </mxCell>
        <mxCell id="4mz0sxE7qNnmxhI9pcOG-148" value=":PantallaInicioAdministradorIH" style="shape=umlLifeline;perimeter=lifelinePerimeter;whiteSpace=wrap;html=1;container=0;dropTarget=0;collapsible=0;recursiveResize=0;outlineConnect=0;portConstraint=eastwest;newEdgeStyle={&quot;edgeStyle&quot;:&quot;elbowEdgeStyle&quot;,&quot;elbow&quot;:&quot;vertical&quot;,&quot;curved&quot;:0,&quot;rounded&quot;:0};size=40;" vertex="1" parent="1">
          <mxGeometry x="-710" y="1370" width="210" height="240" as="geometry" />
        </mxCell>
        <mxCell id="4mz0sxE7qNnmxhI9pcOG-149" value="" style="html=1;points=[[0,0,0,0,5],[0,1,0,0,-5],[1,0,0,0,5],[1,1,0,0,-5]];perimeter=orthogonalPerimeter;outlineConnect=0;targetShapes=umlLifeline;portConstraint=eastwest;newEdgeStyle={&quot;curved&quot;:0,&quot;rounded&quot;:0};" vertex="1" parent="4mz0sxE7qNnmxhI9pcOG-148">
          <mxGeometry x="100" y="60" width="10" height="30" as="geometry" />
        </mxCell>
        <mxCell id="4mz0sxE7qNnmxhI9pcOG-150" value=":CRUDTorneosIH" style="shape=umlLifeline;perimeter=lifelinePerimeter;whiteSpace=wrap;html=1;container=0;dropTarget=0;collapsible=0;recursiveResize=0;outlineConnect=0;portConstraint=eastwest;newEdgeStyle={&quot;edgeStyle&quot;:&quot;elbowEdgeStyle&quot;,&quot;elbow&quot;:&quot;vertical&quot;,&quot;curved&quot;:0,&quot;rounded&quot;:0};" vertex="1" parent="1">
          <mxGeometry x="-480" y="1370" width="160" height="240" as="geometry" />
        </mxCell>
        <mxCell id="4mz0sxE7qNnmxhI9pcOG-151" value="" style="html=1;points=[[0,0,0,0,5],[0,1,0,0,-5],[1,0,0,0,5],[1,1,0,0,-5]];perimeter=orthogonalPerimeter;outlineConnect=0;targetShapes=umlLifeline;portConstraint=eastwest;newEdgeStyle={&quot;curved&quot;:0,&quot;rounded&quot;:0};" vertex="1" parent="4mz0sxE7qNnmxhI9pcOG-150">
          <mxGeometry x="75" y="80" width="10" height="110" as="geometry" />
        </mxCell>
        <mxCell id="4mz0sxE7qNnmxhI9pcOG-152" value="" style="shape=umlLifeline;perimeter=lifelinePerimeter;whiteSpace=wrap;html=1;container=1;dropTarget=0;collapsible=0;recursiveResize=0;outlineConnect=0;portConstraint=eastwest;newEdgeStyle={&quot;curved&quot;:0,&quot;rounded&quot;:0};participant=umlActor;" vertex="1" parent="1">
          <mxGeometry x="-760" y="1370" width="20" height="240" as="geometry" />
        </mxCell>
        <mxCell id="4mz0sxE7qNnmxhI9pcOG-153" value="" style="html=1;points=[[0,0,0,0,5],[0,1,0,0,-5],[1,0,0,0,5],[1,1,0,0,-5]];perimeter=orthogonalPerimeter;outlineConnect=0;targetShapes=umlLifeline;portConstraint=eastwest;newEdgeStyle={&quot;curved&quot;:0,&quot;rounded&quot;:0};" vertex="1" parent="4mz0sxE7qNnmxhI9pcOG-152">
          <mxGeometry x="5" y="60" width="10" height="160" as="geometry" />
        </mxCell>
        <mxCell id="4mz0sxE7qNnmxhI9pcOG-154" value="iniciarSesion" style="html=1;verticalAlign=bottom;endArrow=block;curved=0;rounded=0;entryX=0;entryY=0;entryDx=0;entryDy=5;entryPerimeter=0;" edge="1" parent="1" source="4mz0sxE7qNnmxhI9pcOG-153" target="4mz0sxE7qNnmxhI9pcOG-149">
          <mxGeometry width="80" relative="1" as="geometry">
            <mxPoint x="-730" y="1460" as="sourcePoint" />
            <mxPoint x="-650" y="1460" as="targetPoint" />
          </mxGeometry>
        </mxCell>
        <mxCell id="4mz0sxE7qNnmxhI9pcOG-155" value="buscarTorneos()" style="html=1;verticalAlign=bottom;endArrow=block;curved=0;rounded=0;entryX=0;entryY=0;entryDx=0;entryDy=5;entryPerimeter=0;exitX=1;exitY=1;exitDx=0;exitDy=-5;exitPerimeter=0;" edge="1" parent="1" source="4mz0sxE7qNnmxhI9pcOG-149" target="4mz0sxE7qNnmxhI9pcOG-151">
          <mxGeometry width="80" relative="1" as="geometry">
            <mxPoint x="-580" y="1450" as="sourcePoint" />
            <mxPoint x="-445" y="1450" as="targetPoint" />
          </mxGeometry>
        </mxCell>
        <mxCell id="4mz0sxE7qNnmxhI9pcOG-156" value=":FormularioEdicionTorneoIH" style="shape=umlLifeline;perimeter=lifelinePerimeter;whiteSpace=wrap;html=1;container=0;dropTarget=0;collapsible=0;recursiveResize=0;outlineConnect=0;portConstraint=eastwest;newEdgeStyle={&quot;edgeStyle&quot;:&quot;elbowEdgeStyle&quot;,&quot;elbow&quot;:&quot;vertical&quot;,&quot;curved&quot;:0,&quot;rounded&quot;:0};" vertex="1" parent="1">
          <mxGeometry x="-305" y="1370" width="160" height="240" as="geometry" />
        </mxCell>
        <mxCell id="4mz0sxE7qNnmxhI9pcOG-157" value="" style="html=1;points=[[0,0,0,0,5],[0,1,0,0,-5],[1,0,0,0,5],[1,1,0,0,-5]];perimeter=orthogonalPerimeter;outlineConnect=0;targetShapes=umlLifeline;portConstraint=eastwest;newEdgeStyle={&quot;curved&quot;:0,&quot;rounded&quot;:0};" vertex="1" parent="4mz0sxE7qNnmxhI9pcOG-156">
          <mxGeometry x="75" y="100" width="10" height="70" as="geometry" />
        </mxCell>
        <mxCell id="4mz0sxE7qNnmxhI9pcOG-158" value="validarCampos()" style="html=1;verticalAlign=bottom;endArrow=block;curved=0;rounded=0;exitX=1.093;exitY=0.162;exitDx=0;exitDy=0;exitPerimeter=0;" edge="1" parent="4mz0sxE7qNnmxhI9pcOG-156" target="4mz0sxE7qNnmxhI9pcOG-157">
          <mxGeometry width="80" relative="1" as="geometry">
            <mxPoint x="85.93000000000029" y="110.00000000000014" as="sourcePoint" />
            <mxPoint x="85" y="143.66" as="targetPoint" />
            <Array as="points">
              <mxPoint x="145" y="110" />
              <mxPoint x="145" y="124" />
            </Array>
          </mxGeometry>
        </mxCell>
        <mxCell id="4mz0sxE7qNnmxhI9pcOG-159" value="mensajeErrorCampos()" style="html=1;verticalAlign=bottom;endArrow=block;curved=0;rounded=0;entryX=1;entryY=1;entryDx=0;entryDy=-5;entryPerimeter=0;" edge="1" parent="4mz0sxE7qNnmxhI9pcOG-156" source="4mz0sxE7qNnmxhI9pcOG-157" target="4mz0sxE7qNnmxhI9pcOG-157">
          <mxGeometry width="80" relative="1" as="geometry">
            <mxPoint x="100.93000000000029" y="150.0000000000001" as="sourcePoint" />
            <mxPoint x="100" y="164" as="targetPoint" />
            <Array as="points">
              <mxPoint x="160" y="150" />
              <mxPoint x="160" y="164" />
            </Array>
          </mxGeometry>
        </mxCell>
        <mxCell id="4mz0sxE7qNnmxhI9pcOG-160" value="editarTorneo()" style="html=1;verticalAlign=bottom;endArrow=block;curved=0;rounded=0;entryX=0;entryY=0;entryDx=0;entryDy=5;entryPerimeter=0;" edge="1" parent="1" source="4mz0sxE7qNnmxhI9pcOG-151" target="4mz0sxE7qNnmxhI9pcOG-157">
          <mxGeometry width="80" relative="1" as="geometry">
            <mxPoint x="-380" y="1470" as="sourcePoint" />
            <mxPoint x="-185" y="1470" as="targetPoint" />
          </mxGeometry>
        </mxCell>
        <mxCell id="4mz0sxE7qNnmxhI9pcOG-161" value="&lt;span style=&quot;font-size: 30px;&quot;&gt;Flujo alternativo&lt;/span&gt;" style="text;html=1;strokeColor=none;fillColor=none;align=center;verticalAlign=middle;whiteSpace=wrap;rounded=0;" vertex="1" parent="1">
          <mxGeometry x="-770" y="1300" width="330" height="60" as="geometry" />
        </mxCell>
      </root>
    </mxGraphModel>
  </diagram>
</mxfile>
